# xmcd CD database file
#
# Track frame offsets:
#	150
#	17628
#	39560
#	59572
#	79250
#	102220
#	122495
#	148154
#	160625
#	176777
#	197017
#	216422
#	236813
#
# Disc length: 4356 seconds
#
# Revision: 1
# Processed by: cddbd v1.5.2PL0 Copyright (c) Steve Scherf et al.
# Submitted via: CDex 1.70beta2
#
DISCID=b911020d
DTITLE=Joss Stone - Colour Me Free ! - TOCP-66924
DYEAR=2009
DGENRE=Classical
TTITLE0=Free Me
TTITLE1=Could Have Been You
TTITLE2=Parallel Lines (feat. Jeff Beck and Sheila E)
TTITLE3=Lady
TTITLE4=4 and 20
TTITLE5=Big Ol' Game (feat. Raphael Saadiq)
TTITLE6=Govermentalist (feat. NaS)
TTITLE7=Incredible
TTITLE8=You Got the Love
TTITLE9=I Believe It to My Soul (feat. David Sanborn)
TTITLE10=Stalemate (with Jamie Hartman)
TTITLE11=Girlfriend on Demand
TTITLE12=I Get High [bonus track] - Mr. Wankerman <secret track>
EXTD=YEAR: 2009
EXTT0=
EXTT1=
EXTT2=
EXTT3=
EXTT4=
EXTT5=
EXTT6=
EXTT7=
EXTT8=
EXTT9=
EXTT10=
EXTT11=
EXTT12=
PLAYORDER=
